<svg xmlns="http://www.w3.org/2000/svg" width="1487.35" height="600.001" viewBox="0 0 1487.35 600.001">
  <g id="logo_pitjarus_2020" transform="translate(0 0)">
    <path id="Path_1" data-name="Path 1" d="M300,462A152,152,0,1,0,148,310,152,152,0,0,0,300,462Zm0-48A104,104,0,1,0,196,310,104,104,0,0,0,300,414Z" fill="#272362" fill-rule="evenodd"/>
    <path id="Path_3" data-name="Path 3" d="M388.788,13.44a300,300,0,0,1,150.7,105.879l-39.516,29.812A250.5,250.5,0,1,0,125,479.235V543.67A300,300,0,0,1,388.788,13.44ZM200,582.844v-53.17q10.139,4.414,20.7,7.943a250.5,250.5,0,0,0,279.486-87.033l39.557,29.756A300,300,0,0,1,205.031,584.572q-1.668-.557-3.329-1.132Z" fill="#272362" fill-rule="evenodd"/>
    <path id="Path_4" data-name="Path 4" d="M713.745,405.763A52.832,52.832,0,0,1,695.687,414a93.854,93.854,0,0,1-22.177,2.535q-30.414,0-47.206-15.524-16.473-15.525-16.474-45.622V285.373h-26.3V247.356h26.3v-41.5h49.423v41.5h42.453v38.017H659.253v69.383q0,10.771,5.386,16.791,5.7,5.7,15.841,5.7,11.721,0,19.959-6.337Z" fill="#bd2230"/>
    <rect id="Rectangle_1" data-name="Rectangle 1" width="49" height="171" transform="translate(508 243)" fill="#bd2230"/>
    <path id="Path_5" data-name="Path 5" d="M703,468.492Q716.623,478,742.6,478q30.414,0,47.205-17.425,17.107-17.107,17.108-46.889V243.554H757.492V414q0,12.355-5.386,18.375-5.385,6.338-14.89,6.337-12.355,0-20.91-6.02ZM966.159,260.028q-21.227-19.008-60.828-19.008a151.494,151.494,0,0,0-40.236,5.385q-19.326,5.387-33.265,15.207l17.741,34.533a68.724,68.724,0,0,1,22.177-11.4,84.655,84.655,0,0,1,26.929-4.435q19.642,0,29.464,8.87,9.822,8.555,9.821,24.712H898.677q-37.383,0-55.442,13.623-17.742,13.623-17.742,37.384a47.823,47.823,0,0,0,7.6,26.612q7.6,11.723,21.86,18.376,14.574,6.652,34.216,6.653,38.018,0,51.958-23.761V414h46.255V316.738Q987.386,278.721,966.159,260.028ZM924.023,377.567a43.981,43.981,0,0,1-22.494,5.7q-12.99,0-20.593-5.386a18.332,18.332,0,0,1-7.287-15.207q0-19.959,30.414-19.959h33.9v17.425A32.819,32.819,0,0,1,924.023,377.567ZM1087.24,247.356a55.062,55.062,0,0,0-23.76,18.692V243.554h-47.2V414h49.42V333.529q0-23.76,12.04-35.483,12.03-12.039,33.26-12.039,2.85,0,11.09.634V241.02Q1102.455,241.02,1087.24,247.356ZM1308.59,414V243.554h-49.42v84.273q0,22.811-10.78,34.532-10.77,11.406-28.51,11.406-34.53,0-34.53-41.186V243.554h-49.43v96.312q0,38.018,19.65,57.343t53.22,19.326a75.587,75.587,0,0,0,29.47-5.7,67.3,67.3,0,0,0,23.44-17.108V414Zm45.79-2.534a170.426,170.426,0,0,0,41.5,5.069q25.02,0,43.08-6.653,18.39-6.971,27.88-19.326a44.992,44.992,0,0,0,9.51-28.2q0-18.691-9.82-29.146a50.212,50.212,0,0,0-23.13-14.257,268.319,268.319,0,0,0-34.22-7.6q-18.69-2.852-27.24-6.019t-8.56-11.089q0-6.969,7.92-11.4t23.77-4.435a98.32,98.32,0,0,1,49.1,12.672l16.48-35.166q-11.73-6.971-29.78-10.772a157.871,157.871,0,0,0-35.8-4.118q-24.4,0-42.46,6.969-17.745,6.971-27.24,19.643a46.477,46.477,0,0,0-9.19,28.513q0,19.326,9.82,29.781a54.69,54.69,0,0,0,23.76,14.573,253.488,253.488,0,0,0,34.53,7.287q17.745,2.217,26.3,5.386t8.55,10.455q0,15.523-31.36,15.524a119.337,119.337,0,0,1-31.68-4.436,107.433,107.433,0,0,1-27.57-12.039l-16.47,35.483Q1334.1,406.081,1354.38,411.466Z" transform="translate(11)" fill-rule="evenodd"/>
    <circle id="Ellipse_1" data-name="Ellipse 1" cx="30" cy="30" r="30" transform="translate(503 164)" fill="#bd2230"/>
    <circle id="Ellipse_2" data-name="Ellipse 2" cx="30" cy="30" r="30" transform="translate(765 164)"/>
    <path id="Path_6" data-name="Path 6" d="M191,171H134V549.8a169.065,169.065,0,0,0,22.815,13.989C171.065,571.2,191,579.45,191,579.45Z" fill="#272362"/>
  </g>
</svg>
